<svg width="104.8727" height="154.3524" viewBox="0 0 104.8727 154.3524" xmlns="http://www.w3.org/2000/svg" xmlns:xlink="http://www.w3.org/1999/xlink"><path d="M27.6966,0c42.6232,0 77.1762,34.553 77.1762,77.1762c0,42.6232 -34.5529,77.1762 -77.1762,77.1762c-3.7747,0 -7.4862,-0.271 -11.116,-0.7946c-0.2422,-0.0691 -0.4838,-0.1412 -0.7247,-0.2165c1.5905,0.2449 3.1971,0.4412 4.8181,0.5875c0,0 0,0 0,0c1.3987,0.1262 2.8082,0.215 4.2274,0.2655v-0.0497c-13.7527,0 -24.9014,-34.5307 -24.9014,-77.1265c0,-40.4552 10.0564,-73.6356 22.8489,-76.8683c1.6031,-0.0994 3.2195,-0.1498 4.8477,-0.1498z" fill="#ffffff" fill-rule="nonzero" stroke="none" stroke-width="1" stroke-linecap="butt" stroke-linejoin="miter" stroke-miterlimit="10" stroke-dasharray="" stroke-dashoffset="0" font-family="none" font-weight="none" font-size="none" text-anchor="none" style="mix-blend-mode: normal"></path></svg>